<?xml version="1.0" encoding="UTF-8" standalone="no"?>
<!DOCTYPE svg PUBLIC "-//W3C//DTD SVG 1.1//EN"
 "http://www.w3.org/Graphics/SVG/1.1/DTD/svg11.dtd">
<!-- Generated by graphviz version 14.1.1 (20251213.1925)
 -->
<!-- Title: ntc_basic_init Pages: 1 -->
<svg width="242pt" height="356pt"
 viewBox="0.00 0.00 242.00 356.00" xmlns="http://www.w3.org/2000/svg" xmlns:xlink="http://www.w3.org/1999/xlink">
<g id="graph0" class="graph" transform="scale(1 1) rotate(0) translate(4 352)">
<title>ntc_basic_init</title>
<!-- Node1 -->
<g id="Node000001" class="node">
<title>Node1</title>
<g id="a_Node000001"><a xlink:title="basic example init">
<polygon fill="#999999" stroke="#666666" points="76,-196 0,-196 0,-176 76,-176 76,-196"/>
<text xml:space="preserve" text-anchor="middle" x="38" y="-182.5" font-family="Helvetica,sans-Serif" font-size="10.00">ntc_basic_init</text>
</a>
</g>
</g>
<!-- Node2 -->
<g id="Node000002" class="node">
<title>Node2</title>
<g id="a_Node000002"><a xlink:href="group__ntc__basic__driver.html#gab5d80c6ff20782705311b5603dbcf716" target="_top" xlink:title="close the chip">
<polygon fill="white" stroke="#666666" points="201.88,-348 143.88,-348 143.88,-328 201.88,-328 201.88,-348"/>
<text xml:space="preserve" text-anchor="middle" x="172.88" y="-334.5" font-family="Helvetica,sans-Serif" font-size="10.00">ntc_deinit</text>
</a>
</g>
</g>
<!-- Node1&#45;&gt;Node2 -->
<g id="edge1_Node000001_Node000002" class="edge">
<title>Node1&#45;&gt;Node2</title>
<g id="a_edge1_Node000001_Node000002"><a xlink:title=" ">
<path fill="none" stroke="#63b8ff" d="M41.78,-196.38C48.99,-221.31 70.7,-285.05 112,-319 118,-323.93 125.3,-327.59 132.7,-330.3"/>
<polygon fill="#63b8ff" stroke="#63b8ff" points="131.46,-333.58 142.05,-333.19 133.53,-326.89 131.46,-333.58"/>
</a>
</g>
</g>
<!-- Node3 -->
<g id="Node000003" class="node">
<title>Node3</title>
<g id="a_Node000003"><a xlink:href="group__ntc__basic__driver.html#ga4d08239a50c52eef93d7c34724499923" target="_top" xlink:title="initialize the chip">
<polygon fill="white" stroke="#666666" points="196.62,-310 149.12,-310 149.12,-290 196.62,-290 196.62,-310"/>
<text xml:space="preserve" text-anchor="middle" x="172.88" y="-296.5" font-family="Helvetica,sans-Serif" font-size="10.00">ntc_init</text>
</a>
</g>
</g>
<!-- Node1&#45;&gt;Node3 -->
<g id="edge2_Node000001_Node000003" class="edge">
<title>Node1&#45;&gt;Node3</title>
<g id="a_edge2_Node000001_Node000003"><a xlink:title=" ">
<path fill="none" stroke="#63b8ff" d="M44.11,-196.24C54.33,-215.66 79.13,-257.96 112,-281 119.66,-286.37 128.91,-290.27 137.82,-293.09"/>
<polygon fill="#63b8ff" stroke="#63b8ff" points="136.76,-296.43 147.33,-295.71 138.62,-289.68 136.76,-296.43"/>
</a>
</g>
</g>
<!-- Node4 -->
<g id="Node000004" class="node">
<title>Node4</title>
<g id="a_Node000004"><a xlink:href="group__ntc__interface__driver.html#ga622d4dcc11ceeccc3720a209f917da0d" target="_top" xlink:title="interface adc deinit">
<polygon fill="white" stroke="#666666" points="233.75,-272 112,-272 112,-252 233.75,-252 233.75,-272"/>
<text xml:space="preserve" text-anchor="middle" x="172.88" y="-258.5" font-family="Helvetica,sans-Serif" font-size="10.00">ntc_interface_adc_deinit</text>
</a>
</g>
</g>
<!-- Node1&#45;&gt;Node4 -->
<g id="edge3_Node000001_Node000004" class="edge">
<title>Node1&#45;&gt;Node4</title>
<g id="a_edge3_Node000001_Node000004"><a xlink:title=" ">
<path fill="none" stroke="#63b8ff" d="M49.52,-196.22C62.99,-208.81 87.53,-230.1 112,-243 115.04,-244.6 118.23,-246.1 121.5,-247.49"/>
<polygon fill="#63b8ff" stroke="#63b8ff" points="120.09,-250.69 130.68,-251.03 122.61,-244.16 120.09,-250.69"/>
</a>
</g>
</g>
<!-- Node5 -->
<g id="Node000005" class="node">
<title>Node5</title>
<g id="a_Node000005"><a xlink:href="group__ntc__interface__driver.html#ga141512274a37c4278bd8af67f5cad90b" target="_top" xlink:title="interface adc init">
<polygon fill="white" stroke="#666666" points="228.5,-234 117.25,-234 117.25,-214 228.5,-214 228.5,-234"/>
<text xml:space="preserve" text-anchor="middle" x="172.88" y="-220.5" font-family="Helvetica,sans-Serif" font-size="10.00">ntc_interface_adc_init</text>
</a>
</g>
</g>
<!-- Node1&#45;&gt;Node5 -->
<g id="edge4_Node000001_Node000005" class="edge">
<title>Node1&#45;&gt;Node5</title>
<g id="a_edge4_Node000001_Node000005"><a xlink:title=" ">
<path fill="none" stroke="#63b8ff" d="M75.66,-196.48C90.76,-200.8 108.46,-205.86 124.52,-210.46"/>
<polygon fill="#63b8ff" stroke="#63b8ff" points="123.3,-213.75 133.88,-213.13 125.23,-207.02 123.3,-213.75"/>
</a>
</g>
</g>
<!-- Node6 -->
<g id="Node000006" class="node">
<title>Node6</title>
<g id="a_Node000006"><a xlink:href="group__ntc__interface__driver.html#ga879bfa70bc0dfdf06f58781a1788c717" target="_top" xlink:title="interface adc read">
<polygon fill="white" stroke="#666666" points="231.5,-196 114.25,-196 114.25,-176 231.5,-176 231.5,-196"/>
<text xml:space="preserve" text-anchor="middle" x="172.88" y="-182.5" font-family="Helvetica,sans-Serif" font-size="10.00">ntc_interface_adc_read</text>
</a>
</g>
</g>
<!-- Node1&#45;&gt;Node6 -->
<g id="edge5_Node000001_Node000006" class="edge">
<title>Node1&#45;&gt;Node6</title>
<g id="a_edge5_Node000001_Node000006"><a xlink:title=" ">
<path fill="none" stroke="#63b8ff" d="M76.37,-186C84.57,-186 93.51,-186 102.52,-186"/>
<polygon fill="#63b8ff" stroke="#63b8ff" points="102.41,-189.5 112.41,-186 102.41,-182.5 102.41,-189.5"/>
</a>
</g>
</g>
<!-- Node7 -->
<g id="Node000007" class="node">
<title>Node7</title>
<g id="a_Node000007"><a xlink:href="group__ntc__interface__driver.html#ga9dabf0f54bf185b62e7254b37ed4b208" target="_top" xlink:title="interface print format data">
<polygon fill="white" stroke="#666666" points="224.75,-158 121,-158 121,-126 224.75,-126 224.75,-158"/>
<text xml:space="preserve" text-anchor="start" x="129" y="-144.5" font-family="Helvetica,sans-Serif" font-size="10.00">ntc_interface_debug</text>
<text xml:space="preserve" text-anchor="middle" x="172.88" y="-132.5" font-family="Helvetica,sans-Serif" font-size="10.00">_print</text>
</a>
</g>
</g>
<!-- Node1&#45;&gt;Node7 -->
<g id="edge6_Node000001_Node000007" class="edge">
<title>Node1&#45;&gt;Node7</title>
<g id="a_edge6_Node000001_Node000007"><a xlink:title=" ">
<path fill="none" stroke="#63b8ff" d="M70.49,-175.57C82.78,-171.5 97.31,-166.69 111.46,-162.01"/>
<polygon fill="#63b8ff" stroke="#63b8ff" points="112.34,-165.4 120.73,-158.93 110.14,-158.76 112.34,-165.4"/>
</a>
</g>
</g>
<!-- Node8 -->
<g id="Node000008" class="node">
<title>Node8</title>
<g id="a_Node000008"><a xlink:href="group__ntc__interface__driver.html#gae46e50a7775184166d09eaa38e75444f" target="_top" xlink:title="interface delay ms">
<polygon fill="white" stroke="#666666" points="232.62,-108 113.12,-108 113.12,-88 232.62,-88 232.62,-108"/>
<text xml:space="preserve" text-anchor="middle" x="172.88" y="-94.5" font-family="Helvetica,sans-Serif" font-size="10.00">ntc_interface_delay_ms</text>
</a>
</g>
</g>
<!-- Node1&#45;&gt;Node8 -->
<g id="edge7_Node000001_Node000008" class="edge">
<title>Node1&#45;&gt;Node8</title>
<g id="a_edge7_Node000001_Node000008"><a xlink:title=" ">
<path fill="none" stroke="#63b8ff" d="M47.33,-175.58C59.85,-160.57 84.95,-132.93 112,-117 114.6,-115.47 117.33,-114.05 120.14,-112.73"/>
<polygon fill="#63b8ff" stroke="#63b8ff" points="121.27,-116.05 129.16,-108.98 118.58,-109.59 121.27,-116.05"/>
</a>
</g>
</g>
<!-- Node9 -->
<g id="Node000009" class="node">
<title>Node9</title>
<g id="a_Node000009"><a xlink:href="group__ntc__basic__driver.html#ga0cf5adbcd4d2d7af64c5c53fd6cd7b49" target="_top" xlink:title="set circuit">
<polygon fill="white" stroke="#666666" points="212.75,-70 133,-70 133,-50 212.75,-50 212.75,-70"/>
<text xml:space="preserve" text-anchor="middle" x="172.88" y="-56.5" font-family="Helvetica,sans-Serif" font-size="10.00">ntc_set_circuit</text>
</a>
</g>
</g>
<!-- Node1&#45;&gt;Node9 -->
<g id="edge8_Node000001_Node000009" class="edge">
<title>Node1&#45;&gt;Node9</title>
<g id="a_edge8_Node000001_Node000009"><a xlink:title=" ">
<path fill="none" stroke="#63b8ff" d="M43.18,-175.78C52.39,-154.55 76.46,-105.45 112,-79 115.16,-76.65 118.62,-74.59 122.23,-72.77"/>
<polygon fill="#63b8ff" stroke="#63b8ff" points="123.47,-76.05 131.29,-68.89 120.72,-69.61 123.47,-76.05"/>
</a>
</g>
</g>
<!-- Node10 -->
<g id="Node000010" class="node">
<title>Node10</title>
<g id="a_Node000010"><a xlink:href="group__ntc__basic__driver.html#gad882bca81f2b4156cbc543e5fdfa0c4f" target="_top" xlink:title="set circuit fixed resistor">
<polygon fill="white" stroke="#666666" points="225.88,-32 119.88,-32 119.88,0 225.88,0 225.88,-32"/>
<text xml:space="preserve" text-anchor="start" x="127.88" y="-18.5" font-family="Helvetica,sans-Serif" font-size="10.00">ntc_set_circuit_fixed</text>
<text xml:space="preserve" text-anchor="middle" x="172.88" y="-6.5" font-family="Helvetica,sans-Serif" font-size="10.00">_resistor</text>
</a>
</g>
</g>
<!-- Node1&#45;&gt;Node10 -->
<g id="edge9_Node000001_Node000010" class="edge">
<title>Node1&#45;&gt;Node10</title>
<g id="a_edge9_Node000001_Node000010"><a xlink:title=" ">
<path fill="none" stroke="#63b8ff" d="M41.5,-175.72C48.34,-149.67 69.72,-80.38 112,-41 112.76,-40.29 113.54,-39.61 114.34,-38.94"/>
<polygon fill="#63b8ff" stroke="#63b8ff" points="116.17,-41.93 122.33,-33.31 112.13,-36.21 116.17,-41.93"/>
</a>
</g>
</g>
</g>
</svg>
