<?xml version="1.0" encoding="UTF-8" standalone="no"?>
<!DOCTYPE svg PUBLIC "-//W3C//DTD SVG 1.1//EN"
 "http://www.w3.org/Graphics/SVG/1.1/DTD/svg11.dtd">
<!-- Generated by graphviz version 14.1.1 (20251213.1925)
 -->
<!-- Title: ntc_basic_set_filter_moving_average Pages: 1 -->
<svg width="254pt" height="78pt"
 viewBox="0.00 0.00 254.00 78.00" xmlns="http://www.w3.org/2000/svg" xmlns:xlink="http://www.w3.org/1999/xlink">
<g id="graph0" class="graph" transform="scale(1 1) rotate(0) translate(4 74)">
<title>ntc_basic_set_filter_moving_average</title>
<!-- Node1 -->
<g id="Node000001" class="node">
<title>Node1</title>
<g id="a_Node000001"><a xlink:title="basic example set filter moving average">
<polygon fill="#999999" stroke="#666666" points="100.75,-54 0,-54 0,-22 100.75,-22 100.75,-54"/>
<text xml:space="preserve" text-anchor="start" x="8" y="-40.5" font-family="Helvetica,sans-Serif" font-size="10.00">ntc_basic_set_filter</text>
<text xml:space="preserve" text-anchor="middle" x="50.38" y="-28.5" font-family="Helvetica,sans-Serif" font-size="10.00">_moving_average</text>
</a>
</g>
</g>
<!-- Node2 -->
<g id="Node000002" class="node">
<title>Node2</title>
<g id="a_Node000002"><a xlink:href="group__ntc__filter__driver.html#gabfddde2a24cc7dbbdfa1d382dd20d322" target="_top" xlink:title="set filter">
<polygon fill="white" stroke="#666666" points="227.38,-70 155.12,-70 155.12,-50 227.38,-50 227.38,-70"/>
<text xml:space="preserve" text-anchor="middle" x="191.25" y="-56.5" font-family="Helvetica,sans-Serif" font-size="10.00">ntc_set_filter</text>
</a>
</g>
</g>
<!-- Node1&#45;&gt;Node2 -->
<g id="edge1_Node000001_Node000002" class="edge">
<title>Node1&#45;&gt;Node2</title>
<g id="a_edge1_Node000001_Node000002"><a xlink:title=" ">
<path fill="none" stroke="#63b8ff" d="M101.12,-45.88C114.98,-48.08 129.99,-50.45 143.66,-52.62"/>
<polygon fill="#63b8ff" stroke="#63b8ff" points="142.86,-56.04 153.29,-54.14 143.96,-49.12 142.86,-56.04"/>
</a>
</g>
</g>
<!-- Node3 -->
<g id="Node000003" class="node">
<title>Node3</title>
<g id="a_Node000003"><a xlink:href="group__ntc__filter__driver.html#ga10ee36653e13a0edc4d87a261e623e82" target="_top" xlink:title="set filter moving average length">
<polygon fill="white" stroke="#666666" points="245.75,-32 136.75,-32 136.75,0 245.75,0 245.75,-32"/>
<text xml:space="preserve" text-anchor="start" x="144.75" y="-18.5" font-family="Helvetica,sans-Serif" font-size="10.00">ntc_set_filter_moving</text>
<text xml:space="preserve" text-anchor="middle" x="191.25" y="-6.5" font-family="Helvetica,sans-Serif" font-size="10.00">_average_length</text>
</a>
</g>
</g>
<!-- Node1&#45;&gt;Node3 -->
<g id="edge2_Node000001_Node000003" class="edge">
<title>Node1&#45;&gt;Node3</title>
<g id="a_edge2_Node000001_Node000003"><a xlink:title=" ">
<path fill="none" stroke="#63b8ff" d="M101.12,-30.12C108.95,-28.88 117.14,-27.58 125.25,-26.3"/>
<polygon fill="#63b8ff" stroke="#63b8ff" points="125.8,-29.75 135.13,-24.73 124.7,-22.84 125.8,-29.75"/>
</a>
</g>
</g>
</g>
</svg>
