<?xml version="1.0" encoding="UTF-8" standalone="no"?>
<!DOCTYPE svg PUBLIC "-//W3C//DTD SVG 1.1//EN"
 "http://www.w3.org/Graphics/SVG/1.1/DTD/svg11.dtd">
<!-- Generated by graphviz version 14.1.1 (20251213.1925)
 -->
<!-- Title: ntc driver function Pages: 1 -->
<svg width="258pt" height="242pt"
 viewBox="0.00 0.00 258.00 242.00" xmlns="http://www.w3.org/2000/svg" xmlns:xlink="http://www.w3.org/1999/xlink">
<g id="graph0" class="graph" transform="scale(1 1) rotate(0) translate(4 238)">
<title>ntc driver function</title>
<!-- Node3 -->
<g id="Node000003" class="node">
<title>Node3</title>
<g id="a_Node000003"><a xlink:href="group__ntc__basic__driver.html" target="_top" xlink:title="ntc basic driver modules">
<polygon fill="white" stroke="#666666" points="250.25,-234 130,-234 130,-214 250.25,-214 250.25,-234"/>
<text xml:space="preserve" text-anchor="middle" x="190.12" y="-220.5" font-family="Helvetica,sans-Serif" font-size="10.00">ntc basic driver function</text>
</a>
</g>
</g>
<!-- Node1 -->
<g id="Node000001" class="node">
<title>Node1</title>
<g id="a_Node000001"><a xlink:title="ntc driver modules">
<polygon fill="#999999" stroke="#666666" points="94,-124 0,-124 0,-104 94,-104 94,-124"/>
<text xml:space="preserve" text-anchor="middle" x="47" y="-110.5" font-family="Helvetica,sans-Serif" font-size="10.00">ntc driver function</text>
</a>
</g>
</g>
<!-- Node1&#45;&gt;Node3 -->
<g id="edge2" class="edge">
<title>Node1&#45;&gt;Node3</title>
<path fill="none" stroke="black" d="M60.97,-133.7C75.49,-154.27 100.82,-186.13 130,-205 135.25,-208.4 141.16,-211.23 147.15,-213.58"/>
<polygon fill="black" stroke="black" points="63.97,-131.88 55.43,-125.6 58.19,-135.83 63.97,-131.88"/>
</g>
<!-- Node6 -->
<g id="Node000006" class="node">
<title>Node6</title>
<g id="a_Node000006"><a xlink:href="group__ntc__example__driver.html" target="_top" xlink:title="ntc example driver modules">
<polygon fill="white" stroke="#666666" points="238.25,-196 142,-196 142,-164 238.25,-164 238.25,-196"/>
<text xml:space="preserve" text-anchor="start" x="150" y="-182.5" font-family="Helvetica,sans-Serif" font-size="10.00">ntc example driver</text>
<text xml:space="preserve" text-anchor="middle" x="190.12" y="-170.5" font-family="Helvetica,sans-Serif" font-size="10.00"> function</text>
</a>
</g>
</g>
<!-- Node1&#45;&gt;Node6 -->
<g id="edge5" class="edge">
<title>Node1&#45;&gt;Node6</title>
<path fill="none" stroke="black" d="M78.06,-129.6C93.47,-137.46 112.62,-146.99 130,-155 136.17,-157.85 142.76,-160.75 149.22,-163.53"/>
<polygon fill="black" stroke="black" points="79.89,-126.61 69.39,-125.16 76.69,-132.84 79.89,-126.61"/>
</g>
<!-- Node4 -->
<g id="Node000004" class="node">
<title>Node4</title>
<g id="a_Node000004"><a xlink:href="group__ntc__filter__driver.html" target="_top" xlink:title="ntc filter driver modules">
<polygon fill="white" stroke="#666666" points="248,-146 132.25,-146 132.25,-126 248,-126 248,-146"/>
<text xml:space="preserve" text-anchor="middle" x="190.12" y="-132.5" font-family="Helvetica,sans-Serif" font-size="10.00">ntc filter driver function</text>
</a>
</g>
</g>
<!-- Node1&#45;&gt;Node4 -->
<g id="edge3" class="edge">
<title>Node1&#45;&gt;Node4</title>
<path fill="none" stroke="black" d="M105.49,-122.96C114.22,-124.32 123.23,-125.73 131.96,-127.09"/>
<polygon fill="black" stroke="black" points="106.12,-119.52 95.71,-121.44 105.05,-126.44 106.12,-119.52"/>
</g>
<!-- Node5 -->
<g id="Node000005" class="node">
<title>Node5</title>
<g id="a_Node000005"><a xlink:href="group__ntc__interface__driver.html" target="_top" xlink:title="ntc interface driver modules">
<polygon fill="white" stroke="#666666" points="238.62,-108 141.62,-108 141.62,-76 238.62,-76 238.62,-108"/>
<text xml:space="preserve" text-anchor="start" x="149.62" y="-94.5" font-family="Helvetica,sans-Serif" font-size="10.00">ntc interface driver</text>
<text xml:space="preserve" text-anchor="middle" x="190.12" y="-82.5" font-family="Helvetica,sans-Serif" font-size="10.00"> function</text>
</a>
</g>
</g>
<!-- Node1&#45;&gt;Node5 -->
<g id="edge4" class="edge">
<title>Node1&#45;&gt;Node5</title>
<path fill="none" stroke="black" d="M105.44,-105.05C117.37,-103.19 129.82,-101.24 141.36,-99.45"/>
<polygon fill="black" stroke="black" points="105.05,-101.56 95.71,-106.56 106.12,-108.48 105.05,-101.56"/>
</g>
<!-- Node2 -->
<g id="Node000002" class="node">
<title>Node2</title>
<g id="a_Node000002"><a xlink:href="group__ntc__link__driver.html" target="_top" xlink:title="ntc link driver modules">
<polygon fill="white" stroke="#666666" points="246.12,-58 134.12,-58 134.12,-38 246.12,-38 246.12,-58"/>
<text xml:space="preserve" text-anchor="middle" x="190.12" y="-44.5" font-family="Helvetica,sans-Serif" font-size="10.00">ntc link driver function</text>
</a>
</g>
</g>
<!-- Node1&#45;&gt;Node2 -->
<g id="edge1" class="edge">
<title>Node1&#45;&gt;Node2</title>
<path fill="none" stroke="black" d="M73.4,-97.59C89.24,-87.83 110.3,-75.7 130,-67 137.1,-63.87 144.89,-60.99 152.41,-58.48"/>
<polygon fill="black" stroke="black" points="71.71,-94.52 65.1,-102.8 75.43,-100.45 71.71,-94.52"/>
</g>
<!-- Node7 -->
<g id="Node000007" class="node">
<title>Node7</title>
<g id="a_Node000007"><a xlink:href="group__ntc__test__driver.html" target="_top" xlink:title="ntc test driver modules">
<polygon fill="white" stroke="#666666" points="246.88,-20 133.38,-20 133.38,0 246.88,0 246.88,-20"/>
<text xml:space="preserve" text-anchor="middle" x="190.12" y="-6.5" font-family="Helvetica,sans-Serif" font-size="10.00">ntc test driver function</text>
</a>
</g>
</g>
<!-- Node1&#45;&gt;Node7 -->
<g id="edge6" class="edge">
<title>Node1&#45;&gt;Node7</title>
<path fill="none" stroke="black" d="M62.17,-94.46C77.06,-75.25 102.14,-46.36 130,-29 135.4,-25.64 141.45,-22.81 147.57,-20.46"/>
<polygon fill="black" stroke="black" points="59.49,-92.21 56.27,-102.3 65.08,-96.42 59.49,-92.21"/>
</g>
</g>
</svg>
