<?xml version="1.0" encoding="UTF-8" standalone="no"?>
<!DOCTYPE svg PUBLIC "-//W3C//DTD SVG 1.1//EN"
 "http://www.w3.org/Graphics/SVG/1.1/DTD/svg11.dtd">
<!-- Generated by graphviz version 14.1.1 (20251213.1925)
 -->
<!-- Title: ntc_basic_set_filter_anti_spike_average Pages: 1 -->
<svg width="265pt" height="78pt"
 viewBox="0.00 0.00 265.00 78.00" xmlns="http://www.w3.org/2000/svg" xmlns:xlink="http://www.w3.org/1999/xlink">
<g id="graph0" class="graph" transform="scale(1 1) rotate(0) translate(4 74)">
<title>ntc_basic_set_filter_anti_spike_average</title>
<!-- Node1 -->
<g id="Node000001" class="node">
<title>Node1</title>
<g id="a_Node000001"><a xlink:title="basic example set filter anti spike average">
<polygon fill="#999999" stroke="#666666" points="105.25,-54 0,-54 0,-22 105.25,-22 105.25,-54"/>
<text xml:space="preserve" text-anchor="start" x="8" y="-40.5" font-family="Helvetica,sans-Serif" font-size="10.00">ntc_basic_set_filter</text>
<text xml:space="preserve" text-anchor="middle" x="52.62" y="-28.5" font-family="Helvetica,sans-Serif" font-size="10.00">_anti_spike_average</text>
</a>
</g>
</g>
<!-- Node2 -->
<g id="Node000002" class="node">
<title>Node2</title>
<g id="a_Node000002"><a xlink:href="group__ntc__filter__driver.html#gabfddde2a24cc7dbbdfa1d382dd20d322" target="_top" xlink:title="set filter">
<polygon fill="white" stroke="#666666" points="235.25,-70 163,-70 163,-50 235.25,-50 235.25,-70"/>
<text xml:space="preserve" text-anchor="middle" x="199.12" y="-56.5" font-family="Helvetica,sans-Serif" font-size="10.00">ntc_set_filter</text>
</a>
</g>
</g>
<!-- Node1&#45;&gt;Node2 -->
<g id="edge1_Node000001_Node000002" class="edge">
<title>Node1&#45;&gt;Node2</title>
<g id="a_edge1_Node000001_Node000002"><a xlink:title=" ">
<path fill="none" stroke="#63b8ff" d="M105.38,-45.88C120.34,-48.16 136.57,-50.63 151.21,-52.86"/>
<polygon fill="#63b8ff" stroke="#63b8ff" points="150.64,-56.31 161.06,-54.36 151.7,-49.39 150.64,-56.31"/>
</a>
</g>
</g>
<!-- Node3 -->
<g id="Node000003" class="node">
<title>Node3</title>
<g id="a_Node000003"><a xlink:href="group__ntc__filter__driver.html#ga77717712455524e172652f44f5d28697" target="_top" xlink:title="set filter anti spike average length">
<polygon fill="white" stroke="#666666" points="257,-32 141.25,-32 141.25,0 257,0 257,-32"/>
<text xml:space="preserve" text-anchor="start" x="149.25" y="-18.5" font-family="Helvetica,sans-Serif" font-size="10.00">ntc_set_filter_anti</text>
<text xml:space="preserve" text-anchor="middle" x="199.12" y="-6.5" font-family="Helvetica,sans-Serif" font-size="10.00">_spike_average_length</text>
</a>
</g>
</g>
<!-- Node1&#45;&gt;Node3 -->
<g id="edge2_Node000001_Node000003" class="edge">
<title>Node1&#45;&gt;Node3</title>
<g id="a_edge2_Node000001_Node000003"><a xlink:title=" ">
<path fill="none" stroke="#63b8ff" d="M105.38,-30.12C113.2,-28.93 121.37,-27.69 129.47,-26.45"/>
<polygon fill="#63b8ff" stroke="#63b8ff" points="129.99,-29.91 139.35,-24.95 128.94,-22.99 129.99,-29.91"/>
</a>
</g>
</g>
</g>
</svg>
